<?xml version="1.0" encoding="UTF-8"?>
<svg width="300" height="300" version="1.1" viewBox="0 0 79.375 79.375" xmlns="http://www.w3.org/2000/svg" xmlns:cc="http://creativecommons.org/ns#" xmlns:dc="http://purl.org/dc/elements/1.1/" xmlns:rdf="http://www.w3.org/1999/02/22-rdf-syntax-ns#">
 <metadata>
  <rdf:RDF>
   <cc:Work rdf:about="">
    <dc:format>image/svg+xml</dc:format>
    <dc:type rdf:resource="http://purl.org/dc/dcmitype/StillImage"/>
    <dc:title/>
   </cc:Work>
  </rdf:RDF>
 </metadata>
 <g fill="none" stroke="#f7f2b6" stroke-width="1">
  <path d="m71.438 2.6458 5.2917 2.6458-5.2917 2.6458-2.6458-2.6458z"/>
  <path d="m71.438 7.9375 5.2917 2.6458-5.2917 2.6458-2.6458-2.6458z"/>
  <path d="m7.9375 2.6458-5.2917 5.2917 5.2917 5.2917 5.2917-5.2917z"/>
  <path d="m71.438 76.729 5.2917-5.2917-5.2917-5.2917-5.2917 5.2917z"/>
  <path d="m7.9375 76.729-5.2917-2.6458 5.2917-2.6458 2.6458 2.6458z"/>
  <path d="m7.9375 71.438-5.2917-2.6458 5.2917-2.6458 2.6458 2.6458-2.6458 2.6458"/>
  <path d="m10.583 5.2917h26.458l5.2917 5.2917h26.458"/>
  <path d="m10.583 10.583h26.458l5.2917-5.2917h26.458"/>
  <path d="m10.583 68.792h26.458l5.2917 5.2917h26.458"/>
  <path d="m68.792 68.792h-26.458l-5.2917 5.2917h-26.458"/>
  <path d="m71.437 66.146 2.6458-2.6458-5.2917-5.2917v-42.333l2.6458-2.6458 2.6458 2.6458v42.333l-5.2917 5.2917z"/>
  <path d="m7.9375 13.229-2.6458 2.6458 5.2917 5.2917v42.333l-2.6458 2.6458-2.6458-2.6458v-42.333l5.2917-5.2917z"/>
  <path d="m15.875 15.875v47.625h47.625v-47.625z"/>
  <path d="m15.875 39.688h-5.2917"/>
  <path d="m63.5 39.688h5.2917"/>
 </g>
</svg>
