<svg width="58.583mm" height="47.999mm" version="1.1" viewBox="0 0 58.583 47.999" xmlns="http://www.w3.org/2000/svg">
 <g fill="none" stroke="#c28a35" stroke-width="1px">
  <path d="m5.4788 37.229-5.2917 5.2917 5.2917 5.2917 7.9375-7.9375 5.2917 5.2917h21.167l5.2917-5.2917 7.9375 7.9375 5.2917-5.2917-5.2917-5.2917-7.9375 7.9375-5.2917-5.2917h-21.167l-5.2917 5.2917-7.9375-7.9375"/>
  <path d="m50.458 39.875v-13.229l5.2917-5.2917v-13.229"/>
  <path d="m55.75 39.875v-13.229l-5.2917-5.2917v-13.229"/>
  <path d="m5.4788 0.18709-5.2917 5.2917 5.2917 5.2917 7.9375-7.9375 5.2917 5.2917h21.167l5.2917-5.2917 7.9375 7.9375 5.2917-5.2917-5.2917-5.2917-7.9375 7.9375-5.2917-5.2917h-21.167l-5.2917 5.2917-7.9375-7.9375"/>
  <path d="m2.8329 39.875v-13.229l5.2917-5.2917v-13.229"/>
  <path d="m8.1246 39.875v-13.229l-5.2917-5.2917v-13.229"/>
 </g>
</svg>
