<svg width="91.142mm" height="111.15mm" version="1.1" viewBox="0 0 91.142 111.15" xmlns="http://www.w3.org/2000/svg">
 <g fill="none" stroke="#c28a35" stroke-width="1">
  <g transform="rotate(180 46.598 53.104)">
   <path d="m2.6458 82.021 5.2917-2.6458 2.6458 2.6458-2.6458 2.6458-5.2917-2.6458"/>
   <path d="m2.6458 87.312 5.2917-2.6458 2.6458 2.6458-2.6458 2.6458z"/>
   <path d="m10.583 82.021h7.9375l5.2917 5.2917h10.583"/>
   <path d="m87.312 84.667 5.2917-2.6458-5.2917-2.6458-2.6458 2.6458z"/>
   <path d="m84.667 82.021h-7.9375l-5.2917 5.2917h-10.583"/>
   <path d="m10.583 87.312h7.9375l5.2917-5.2917h10.583"/>
   <path d="m84.667 87.312 2.6458-2.6458 5.2917 2.6458-5.2917 2.6458z"/>
   <path d="m84.667 87.312h-7.9375l-5.2917-5.2917h-10.583"/>
   <path d="m60.854 82.021h-2.6458l-5.2917 5.2917h-10.583l-5.2917-5.2917h-2.6458"/>
   <path d="m34.396 87.312h2.6458l5.2917-5.2917h10.583l5.2917 5.2917h2.6458"/>
   <path d="m44.979 87.312 7.9375 7.9375-5.2917 5.2917-5.2917-5.2917 7.9375-7.9375"/>
   <path d="m42.333 95.25-2.6458 2.6458-2.6458-2.6458 2.6458-2.6458 2.6458 2.6458"/>
   <path d="m52.917 95.25 2.6458-2.6458 2.6458 2.6458-2.6458 2.6458z"/>
   <path d="m47.625 100.54-2.6458 2.6458 2.6458 2.6458 2.6458-2.6458z"/>
  </g>
  <g transform="translate(-2.0542 4.9469)">
   <path d="m2.6458 82.021 5.2917-2.6458 2.6458 2.6458-2.6458 2.6458-5.2917-2.6458"/>
   <path d="m2.6458 87.312 5.2917-2.6458 2.6458 2.6458-2.6458 2.6458z"/>
   <path d="m10.583 82.021h7.9375l5.2917 5.2917h10.583"/>
   <path d="m87.312 84.667 5.2917-2.6458-5.2917-2.6458-2.6458 2.6458z"/>
   <path d="m84.667 82.021h-7.9375l-5.2917 5.2917h-10.583"/>
   <path d="m10.583 87.312h7.9375l5.2917-5.2917h10.583"/>
   <path d="m84.667 87.312 2.6458-2.6458 5.2917 2.6458-5.2917 2.6458z"/>
   <path d="m84.667 87.312h-7.9375l-5.2917-5.2917h-10.583"/>
   <path d="m60.854 82.021h-2.6458l-5.2917 5.2917h-10.583l-5.2917-5.2917h-2.6458"/>
   <path d="m34.396 87.312h2.6458l5.2917-5.2917h10.583l5.2917 5.2917h2.6458"/>
   <path d="m44.979 87.312 7.9375 7.9375-5.2917 5.2917-5.2917-5.2917 7.9375-7.9375"/>
   <path d="m42.333 95.25-2.6458 2.6458-2.6458-2.6458 2.6458-2.6458 2.6458 2.6458"/>
   <path d="m52.917 95.25 2.6458-2.6458 2.6458 2.6458-2.6458 2.6458z"/>
   <path d="m47.625 100.54-2.6458 2.6458 2.6458 2.6458 2.6458-2.6458z"/>
  </g>
 </g>
</svg>
